<?xml version="1.0" encoding="UTF-8"?>
<svg version="1.1" viewBox="0 0 320 320" xmlns="http://www.w3.org/2000/svg">
  <rect width="320" height="320" ry="22" fill="#509c24"/>
  <g fill="#ffffff">
    <path d="m118.565 235.511h12.593q6.5669 0 9.57997 3.09031 3.01305 3.01305 3.01305 9.34814v3.32208q0 8.42111-5.56255 10.6615v0.15451q3.09031 0.92709 4.32643 3.78563 1.31338 2.85853 1.31338 7.64853v9.50267q0 2.31773 0.15451 3.78562 0.15452 1.39064 0.77258 2.78128h-8.65287q-0.46354-1.31338-0.61806-2.47224-0.15451-1.15887-0.15451-4.17192v-9.88896q0-3.70836-1.23612-5.17626-1.15887-1.46789-4.09466-1.46789h-2.93579v23.1773h-8.49834zm11.5886 23.1773q2.5495 0 3.78562-1.31338 1.31338-1.31338 1.31338-4.40368v-4.17192q0-2.93579-1.08161-4.24916-1.00435-1.31338-3.24482-1.31338h-3.86288v15.4515z"/>
    <path d="m149.7 235.511h23.1773v7.72577h-14.679v14.2927h11.6659v7.72576h-11.6659v16.6104h14.679v7.72577h-23.1773z"/>
    <path d="m188.947 290.363q-6.18061 0-9.34815-3.4766-3.16756-3.55385-3.16756-10.1207v-3.0903h8.03482v3.70836q0 5.25352 4.40369 5.25352 2.16321 0 3.24482-1.23612 1.15886-1.31338 1.15886-4.17191 0-3.39934-1.54515-5.94884-1.54515-2.62676-5.71707-6.25786-5.25351-4.63546-7.33947-8.34381-2.08595-3.78563-2.08595-8.49834 0-6.41238 3.24482-9.88896 3.24482-3.55385 9.42544-3.55385 6.10335 0 9.19368 3.55385 3.16756 3.47659 3.16756 10.0435v2.24047h-8.03482v-2.78128q0-2.78127-1.0816-4.01739-1.08161-1.31338-3.16756-1.31338-4.24917 0-4.24917 5.17626 0 2.93579 1.54515 5.48529 1.62241 2.5495 5.79432 6.18061 5.33078 4.63546 7.33947 8.42111 2.0087 3.78565 2.0087 8.88462 0 6.64416-3.32208 10.198-3.24482 3.55385-9.50267 3.55385z"/>
    <path d="m218.923 290.363q-6.25787 0-9.57997-3.55385-3.32211-3.55385-3.32208-10.0435v-28.4308q0-6.48964 3.32208-10.0435t9.57997-3.55385 9.57997 3.55385 3.32208 10.0435v28.4308q0 6.48964-3.32208 10.0435t-9.57997 3.55385zm0-7.72577q4.40368 0 4.40368-5.33077v-29.5124q0-5.33078-4.40368-5.33078t-4.40368 5.33078v29.5124q0 5.33077 4.40368 5.33077z"/>
    <path d="m237.541 235.511h12.593q6.5669 0 9.57997 3.09031 3.01305 3.01305 3.01305 9.34814v3.32208q0 8.42111-5.56255 10.6615v0.15451q3.09031 0.92709 4.32643 3.78563 1.31338 2.85853 1.31338 7.64853v9.50267q0 2.31773 0.15451 3.78562 0.15452 1.39064 0.77258 2.78128h-8.65287q-0.46354-1.31338-0.61806-2.47224-0.15451-1.15887-0.15451-4.17192v-9.88896q0-3.70836-1.23613-5.17626-1.15886-1.46789-4.09464-1.46789h-2.93579v23.1773h-8.49834zm11.5886 23.1773q2.54951 0 3.78563-1.31338 1.31338-1.31338 1.31338-4.40368v-4.17192q0-2.93579-1.08161-4.24916-1.00435-1.31338-3.24482-1.31338h-3.86287v15.4515z"/>
    <path d="m275.166 243.236h-8.88463v-7.72577h26.2676v7.72577h-8.88463v46.3546h-8.49833z"/>
    <path d="m27.451 235.511h8.49834v46.3546h13.9836v7.72577h-22.4819z"/>
    <path d="m60.9038 235.511h11.5114l8.8074 54.0803h-8.49834l-1.54515-10.7388v0.15452h-9.6572l-1.54515 10.5843h-7.88029zm9.27091 36.1566-3.78562-26.7311h-0.154515l-3.70837 26.7311z"/>
    <path d="m85.3169 235.511h10.6615l8.26658 32.371h0.15452v-32.371h7.57123v54.0803h-8.7301l-10.198-39.4786h-0.154515v39.4786h-7.57123z"/>
    <path d="m70.8647 83.9086c-13.9173 0-25.291 11.3068-25.291 25.291 0 12.1467 8.53122 18.9414 19.9375 20.5176v13.7422c-35.8256-0.0237-27.4656-7.5e-4 -38.3304 0v5.35351h85.9202v-5.35351h-36.8827v-13.7461c11.4062-1.5885 19.9395-8.42516 19.9395-20.5137 0-13.9173-11.3757-25.291-25.293-25.291z"/>
    <path d="m188.497 158.447v35.4624h-4.01461v-19.4039h-5.35281v19.4039h-2.6764v-19.4039h-5.35281v19.4039h-2.67641v-19.4039h-5.35281v19.4039h-2.67641v-19.4039h-5.35281v19.4039h-2.6764v-19.4039h-5.35281v19.4039h-2.67641v-19.4039h-5.35281v19.4039h-4.01461v-35.4624h-5.35281v37.0013c0 2.07422 1.67275 3.81388 3.81388 3.81388h56.6729c2.07421 0 3.81387-1.67275 3.81387-3.81388v-37.0013z"/>
    <path d="m202.749 78.824-17.1959-32.1169c-0.66911-1.20438-1.9404-2.0073-3.34551-2.0073h-40.949c-1.40511 0-2.6764 0.736011-3.3455 2.0073l-17.1959 32.1169c-1.20438 2.20803-1.80657 4.68371-1.80657 7.15938v63.297c0 2.07421 1.67275 3.81387 3.81388 3.81387h26.9648v-34.1242h24.0876v34.1242h26.9648c2.07421 0 3.81388-1.67275 3.81388-3.81387v-63.297c0-2.54258-0.6022-4.95135-1.80658-7.15938z"/>
    <path d="m255.863 143.459v-13.3691h20.0723l-25.4258-46.1682-25.4258 46.168h20.0723v13.3691h-34.7891v5.35352h81.9121v-5.35352c-20.4498-5e-3 2.27468-8.5e-4 -6.7207-4e-3 -92.298-0.0107 77.5992 4e-3 -29.6953 4e-3zm29.6953-4e-3c16.2958-8e-3 -52.5963-0.0179 0 0z"/>
  </g>
</svg>
