<?xml version="1.0"?>
<svg xmlns="http://www.w3.org/2000/svg" width="520" height="520" viewBox="0 0 520 520" style="background-color: #ffffff;">
  <g>
    <path d="m 128,202 c -20.8,0 -37.800781,16.90078 -37.800781,37.80078 0,18.15372 12.753611,28.30448 29.800781,30.66016 V 291 H 68 v 8 h 120 v -8 h -52 v -20.54492 c 17.04706,-2.37407 29.80078,-12.58752 29.80078,-30.6543 C 165.80078,219.00078 148.8,202 128,202 Z"/>
    <path d="m 392,202 -38,69 h 30 v 19.98047 h -51.99609 v 8 h 120 v -8 H 400 V 271 h 30 z"/>
    <path d="m 300,315 v 53 h -6 v -29 h -8 v 29 h -4 v -29 h -8 v 29 h -4 v -29 h -8 v 29 h -4 v -29 h -8 v 29 h -4 v -29 h -8 v 29 h -4 v -29 h -8 v 29 h -6 v -53 h -8 v 55.3 c 0,3.1 2.5,5.7 5.7,5.7 h 84.7 c 3.1,0 5.7,-2.5 5.7,-5.7 V 315 Z"/>
    <path d="m 321.3,196 -25.7,-48 c -1,-1.8 -2.9,-3 -5,-3 h -61.2 c -2.1,0 -4,1.1 -5,3 l -25.7,48 c -1.8,3.3 -2.7,7 -2.7,10.7 v 94.6 c 0,3.1 2.5,5.7 5.7,5.7 H 242 v -51 h 36 v 51 h 40.3 c 3.1,0 5.7,-2.5 5.7,-5.7 v -94.6 c 0,-3.8 -0.9,-7.4 -2.7,-10.7 z"/>
  </g>
  <g>
    <path d="m 156.7,87.5 -17.2,-31.4 3.6,-2 15.3,28 13.8,-7.5 1.8,3.3 z"/>
    <path d="m 201.2,67.5 -8.1,-9.1 -13.4,5 -0.2,12.2 -3.9,1.5 0.8,-38.5 3.3,-1.2 25.6,28.8 z m -10.6,-12.2 -7.7,-8.9 c -1,-1.1 -2.1,-2.5 -3.3,-4.3 0.2,1.6 0.3,3.4 0.3,5.4 l -0.1,11.8 z"/>
    <path d="M 235.8,60.1 231.1,61 206.3,35.2 h -0.2 c 0.9,3.4 1.6,6.5 2.2,9.4 l 3.8,19.9 -3.8,0.7 -6.7,-35.1 4.6,-0.9 24.7,25.6 h 0.2 c -0.1,-0.4 -0.5,-1.8 -1,-4.1 -0.6,-2.3 -0.9,-4 -1.1,-5 l -3.8,-20.1 3.8,-0.7 z"/>
    <path d="m 253.5,31.9 c 1.2,-0.1 2.3,0 3.2,0.1 l -0.4,3.8 c -1.1,-0.2 -2.1,-0.2 -2.9,-0.2 -2.2,0.1 -4,1.1 -5.4,2.9 -1.4,1.8 -2.1,4.1 -1.9,6.7 l 0.8,14.3 -4,0.2 -1.5,-26.7 3.3,-0.2 0.7,4.9 h 0.2 c 0.9,-1.8 2,-3.2 3.4,-4.2 1.3,-1 2.8,-1.6 4.5,-1.6 z"/>
    <path d="m 272.7,60 c -3.9,-0.2 -7,-1.6 -9.2,-4.1 -2.2,-2.5 -3.1,-5.9 -2.9,-10.2 0.2,-4.3 1.5,-7.7 3.7,-10.1 2.2,-2.4 5.2,-3.5 8.7,-3.3 3.3,0.2 5.9,1.4 7.8,3.7 1.8,2.3 2.7,5.3 2.5,8.9 l -0.1,2.6 -18.4,-1 c -0.1,3.1 0.6,5.6 2,7.3 1.4,1.7 3.5,2.6 6.2,2.8 2.9,0.2 5.8,-0.3 8.6,-1.3 l -0.2,3.6 c -1.5,0.5 -2.8,0.9 -4.1,1.1 -1.3,0 -2.8,0.1 -4.6,0 z m 0.2,-24.4 c -2.1,-0.1 -3.9,0.5 -5.2,1.8 -1.4,1.3 -2.2,3.2 -2.6,5.7 l 14,0.7 c 0.1,-2.6 -0.3,-4.5 -1.4,-6 -1.1,-1.5 -2.7,-2.1 -4.8,-2.2 z"/>
    <path d="m 306.1,56.6 c -0.4,2.5 -1.7,4.2 -3.7,5.2 -2.1,1 -4.7,1.2 -8,0.6 -3.5,-0.6 -6.1,-1.6 -7.9,-3.1 l 0.7,-3.7 c 1.2,0.9 2.4,1.6 3.8,2.2 1.4,0.6 2.8,1.1 4.1,1.3 2.1,0.4 3.7,0.3 5,-0.1 1.2,-0.5 2,-1.4 2.2,-2.7 0.2,-1 -0.1,-2 -0.9,-2.9 -0.8,-0.9 -2.3,-2.1 -4.7,-3.5 -2.3,-1.3 -3.9,-2.5 -4.8,-3.3 -0.9,-0.9 -1.5,-1.8 -1.9,-2.7 -0.4,-0.9 -0.4,-2 -0.2,-3.2 0.4,-2.1 1.6,-3.7 3.5,-4.6 1.9,-0.9 4.5,-1.1 7.5,-0.6 2.8,0.5 5.5,1.6 8,3.2 l -2,3 c -2.5,-1.6 -4.8,-2.5 -6.9,-2.9 -1.9,-0.3 -3.4,-0.3 -4.4,0.1 -1,0.4 -1.7,1.2 -1.9,2.2 -0.1,0.7 0,1.3 0.2,1.9 0.3,0.6 0.8,1.1 1.5,1.7 0.7,0.6 2.1,1.5 4.3,2.8 2.9,1.7 4.8,3.2 5.7,4.6 0.9,1.4 1.1,2.8 0.8,4.5 z"/>
    <path d="m 335.7,59 c -1.3,4.2 -3.4,7.1 -6.2,8.8 -2.8,1.7 -6.1,2 -9.8,0.8 -2.3,-0.7 -4.1,-1.9 -5.6,-3.5 -1.4,-1.6 -2.3,-3.6 -2.7,-5.9 -0.3,-2.3 -0.1,-4.8 0.7,-7.5 1.3,-4.2 3.3,-7.1 6.1,-8.8 2.8,-1.7 6.1,-1.9 9.8,-0.8 3.6,1.1 6,3.2 7.4,6.2 1.5,3.1 1.6,6.6 0.3,10.7 z m -19.4,-6.1 c -1,3.3 -1.1,6 -0.4,8.1 0.8,2.1 2.4,3.6 5,4.4 2.6,0.8 4.7,0.5 6.6,-0.8 1.8,-1.3 3.3,-3.6 4.3,-6.9 1,-3.2 1.1,-5.9 0.3,-8 -0.8,-2.1 -2.5,-3.5 -5,-4.3 -2.5,-0.8 -4.7,-0.6 -6.5,0.7 -1.9,1.3 -3.3,3.5 -4.3,6.8 z"/>
    <path d="m 358.9,54.1 c 1.1,0.5 2,1 2.8,1.6 l -2,3.2 c -0.9,-0.7 -1.8,-1.2 -2.5,-1.5 -2,-0.9 -4,-0.8 -6.1,0.1 -2.1,1 -3.7,2.7 -4.8,5.1 l -5.8,13.1 -3.7,-1.6 10.9,-24.4 3.1,1.4 -1.6,4.7 0.2,0.1 c 1.6,-1.2 3.3,-1.9 4.9,-2.2 1.4,-0.5 3,-0.3 4.6,0.4 z"/>
    <path d="m 364.8,85 c 0.6,0.4 1.2,0.7 1.9,0.9 0.6,0.2 1.1,0.4 1.5,0.5 l -1.5,2.7 c -0.5,0 -1.1,-0.2 -1.9,-0.5 -0.8,-0.3 -1.5,-0.6 -2.1,-1 -4.5,-2.6 -5.4,-6.2 -2.7,-11 l 7.9,-13.8 -3.3,-1.9 1,-1.7 4.2,0.4 4.3,-4.1 2,1.2 -3.1,5.4 6.7,3.9 -1.6,2.7 -6.7,-3.9 -7.8,13.7 c -0.8,1.4 -1.1,2.7 -0.8,3.8 0.2,1.2 0.9,2.1 2,2.7 z"/>
  </g>
  <path d="M 430.8525,123.07961 A 219.18207,219.18207 0 0 1 479.28207,260.5 v 0 A 219.18207,219.18207 0 0 1 260.10001,479.68207 219.18207,219.18207 0 0 1 40.917938,260.5 219.18207,219.18207 0 0 1 89.403571,123.00998 M 185.9,466.8 C 101.4,436.4 40.9,355.5 40.9,260.4 40.9,188.8 75.3,125.1 128.4,85.1 m 266.5,2.4 c 51.4,40.1 84.5,102.7 84.5,173 0,94.9 -60.3,175.8 -144.7,206.3" style="color:#000000;clip-rule:nonzero;display:inline;overflow:visible;visibility:visible;opacity:1;isolation:auto;mix-blend-mode:normal;color-interpolation:sRGB;color-interpolation-filters:linearRGB;solid-color:#000000;solid-opacity:1;fill:none;fill-opacity:1;fill-rule:nonzero;stroke:#000000;stroke-width:2.5;stroke-linecap:butt;stroke-linejoin:miter;stroke-miterlimit:10;stroke-dasharray:none;stroke-dashoffset:0;stroke-opacity:1"/>
</svg>
