<?xml version="1.0" encoding="UTF-8"?>
<svg version="1.1" viewBox="0 0 100 100" xmlns="http://www.w3.org/2000/svg">
  <rect width="100" height="100" fill="#000000"/>
  <path d="m34.4417 81.6627c-2.72987 0.02862-4.85611 3.70768-1.93243 5.57091 3.35221 1.78475 6.95522-2.96039 3.48294-5.17652-0.518685-0.279801-1.04495-0.39967-1.55051-0.394397zm-0.06155 1.37892c1.01829 0.02911 1.92815 1.052 1.21266 2.33867-1.08234 1.83354-3.75838 0.49587-2.68395-1.46192 0.374865-0.634771 0.937907-0.892061 1.47129-0.876743zm30.6496-1.37892c-2.72994 0.02862-4.85616 3.70768-1.93248 5.57091 3.35225 1.78475 6.95506-2.96039 3.48295-5.17652-0.518675-0.279821-1.04494-0.39966-1.55047-0.394397zm-0.06155 1.37892c1.0183 0.02911 1.92814 1.05205 1.21254 2.33867-1.08217 1.83364-3.75862 0.495802-2.68392-1.46192 0.374796-0.634771 0.938015-0.892071 1.47138-0.876743zm-6.40754-1.34698c-1.67884-0.01029-3.50029 1.22112-3.4532 3.19838 0.142115 3.55023 5.08939 3.49868 6.05499 0.39134h-1.54172c-0.432226 1.07421-2.17175 1.34051-2.77983 0.295668-0.411342-0.76594-0.08526-1.88564 0.662986-2.30064 0.740733-0.452523 1.90147-0.249145 2.21265 0.607056h1.5099c-0.291513-1.51827-1.44069-2.18507-2.66578-2.1918zm-17.9985 0.14091c-0.733667-0.0029-1.48059 0.04048-1.87322 0.01372l-0.982568 5.5919h1.47785l0.29557-1.67765h0.998513l0.70308 1.67765h1.59756l-0.782791-1.88533c1.55483-0.455257 1.96337-2.77253 0.359518-3.46683-0.339398-0.204808-1.05985-0.251556-1.79351-0.253673zm0.634526 1.36888c0.563552-0.01019 0.910966 0.637123 0.448025 1.01752-0.296883 0.32208-1.5334 0.138539-1.92526 0.183826l0.207778-1.19828h1.21426c0.01872-0.0029 0.03685-0.0029 0.05518-0.0029zm-15.5277-1.355-0.982547 5.59188h1.47787c0.0834-0.531652 0.595501-3.02309 0.50323-3.51486h0.07987l1.41402 3.51486h1.71757l0.98241-5.59188h-1.47772l-0.487383 2.79593-0.0078 0.718946h-0.08007l-1.4218-3.51488h-1.7176zm18.3901 0-0.239609 1.35807h1.75744l-0.742948 4.23381h1.47786l0.742831-4.23381h1.75742l0.239747-1.35807h-4.99262zm5.69196 0-0.982577 5.59188h1.47787l0.383411-2.15695h2.15682l-0.383411 2.15695h1.47785l0.982577-5.59188h-1.47787l-0.359547 2.07702h-2.15669l0.359439-2.07702zm19.5262 0-0.982666 5.59188h1.47785c0.0834-0.531652 0.595619-3.02309 0.503348-3.51486h0.07987l1.41399 3.51486h1.7175l0.982548-5.59188h-1.47787c-0.08213 0.531798-0.586004 3.0235-0.495321 3.51488h-0.07977l-1.42184-3.51488z" fill="#ffffff"/>
  <path d="m50.0223 12.3733-14.4348 19.8804-21.0697-12.7907 7.1931 40.974h56.5776v0.0039l7.19371-40.978-21.0656 12.7867-14.3944-19.8763zm-0.0078 12.0088 12.5037 17.2674 13.333-8.09489-3.48259 19.8325h-44.7373l-3.48259-19.8325 13.329 8.09078 12.5359-17.2633zm-27.0412 43.1446 1.25242 7.04991h51.5786l1.23723-7.04991h-54.0688z" fill="#ffffff"/>
</svg>
