<?xml version="1.0" encoding="UTF-8" standalone="no"?>
<svg xmlns="http://www.w3.org/2000/svg" version="1.1" width="1200" height="1200" viewBox="0 0 1200 1200">
  <rect x="0" y="0" width="1200" height="1200" fill="#111111"/>
  <g>
    <path fill="#3e3e3e" d="M 849.81997,715.15695 1012.518,194.2935 792.04424,379.14334 709.26215,241.46328 616.82562,368.5606 522.49767,170.22705 435.80506,339.67854 187.48199,124.00879 373.28335,637.17887 c 0,0 -20.59689,18.43857 -31.77143,64.50598 -15.2359,62.85823 17.3362,112.63888 17.3362,112.63888 0,0 35.17137,-14.0639 149.21432,-2.88937 124.52126,12.20729 365.82398,109.76112 365.82398,109.76112 0,0 38.64093,-56.17439 14.43523,-131.90132 -11.22095,-35.19458 -38.50168,-74.13721 -38.50168,-74.13721 z"/>
    <path fill="#de0a14" d="M 838.97034,718.01151 999.75373,214.85558 789.29412,393.40451 709.87715,258.49778 614.57447,385.46746 523.24032,187.04108 439.84322,353.76565 209.52937,155.33927 385.58346,639.12832 c 0,0 -23.20776,21.36275 -33.09427,67.74346 -11.38341,53.26182 11.91719,95.23306 11.91719,95.23306 0,0 27.74488,-13.1588 141.76463,-1.98426 124.48644,12.20728 363.35235,109.47102 363.35235,109.47102 0,0 32.22398,-39.33716 8.04149,-115.11051 -11.25576,-35.17136 -38.59451,-76.46958 -38.59451,-76.46958 z"/>
    <path fill="#ffffff" d="m 388.34519,753.58901 c 0,0 47.57591,-6.76506 131.92453,5.10571 127.0277,17.89319 205.92249,49.56018 263.84907,70.60962 49.6298,18.03243 68.93866,26.37563 68.93866,26.37563 0,0 6.96233,-90.59151 -114.8088,-169.71838 -123.7438,-80.3917 -254.69361,-66.18855 -321.0098,-14.0407 -46.48515,36.61025 -28.89366,81.66812 -28.89366,81.66812 z"/>
    <path fill="#ffffff" d="m 434.64468,606.12688 c 0,0 78.99923,-37.90988 176.85476,-24.94835 103.54144,13.70419 173.84936,78.08253 173.84936,78.08253 L 884.62001,389.44759 769.46309,500.54316 709.87715,353.76565 610.59434,441.02685 519.26018,282.30895 447.79187,421.18421 324.68629,341.82526 Z"/>
  </g>
  <g fill="#ffffff">
    <path d="m 179.45161,968.36041 h 32.82471 l 26.46612,48.13719 13.18079,-48.13719 h 35.56086 l -27.33423,93.22909 c 0,0 -25.58437,0.032 -36.92894,0 -8.84931,-14.6761 -24.6208,-42.5012 -24.6208,-42.5012 l -13.67621,42.5012 h -34.19278 z"/>
    <path d="m 381.63197,988.9332 c -0.70781,-0.008 -1.11855,0.0169 -1.11855,0.0169 h -60.18171 c 0,0 -8.24954,-0.59107 -19.15778,5.463 -8.54479,4.74054 -10.66767,12.2717 -10.66767,12.2717 l -10.35786,35.4518 c 0,0 -4.20865,10.2397 0.5637,15.6211 4.00425,4.5315 17.73477,3.8314 17.73477,3.8314 h 58.81377 c 0,0 11.05836,0.5324 18.78049,-3.5491 6.93128,-3.6633 11.10354,-11.3308 11.10354,-11.3308 l 11.71695,-35.4518 c 0,0 3.43146,-10.786 -0.56368,-15.62191 -4.95589,-6.00465 -13.5989,-6.66556 -16.66597,-6.70225 z m -53.77335,23.5147 29.91957,0.086 c 0,0 2.60003,0.2411 3.89083,1.4319 1.17264,1.0862 -0.34088,6.4812 -0.34088,6.4812 l -4.09059,12.3401 c 0,0 -1.30444,4.3271 -2.72706,5.4861 -1.61351,1.3181 -4.09059,1.3635 -4.09059,1.3635 l -30.37935,-0.2228 c 0,0 -3.10003,-0.068 -3.89088,-1.4319 -0.85903,-1.4817 0.0772,-3.8314 0.0772,-3.8314 l 5.59529,-17.4578 a 4.5450997,4.5450997 0 0 1 1.75414,-2.8362 c 1.50442,-1.059 4.2823,-1.4088 4.2823,-1.4088 z"/>
    <path d="m 414.70597,988.92699 h 32.82017 l -1.39535,5.40412 c 0,0 5.16324,-5.4223 9.6038,-5.40412 13.06716,0.05 38.29701,0 38.29701,0 l -8.23572,23.97541 c 0,0 -31.50663,0.045 -40.85136,-0.1091 -2.99067,-0.05 -4.47692,2.8271 -4.47692,2.8271 l -13.84892,45.9146 h -34.08825 z"/>
    <path d="m 507.71235,968.36041 h 32.82471 l -5.45412,20.56658 h 17.78043 l -6.81765,23.30731 h -17.78043 c 0,0 -4.80417,15.7169 -6.81765,21.9346 -1.04537,3.1816 2.72706,2.7271 2.72706,2.7271 h 21.88466 l -6.81765,24.6799 h -36.92894 c 0,0 -10.56736,0.4227 -14.57159,-3.2407 -5.81773,-5.3223 -3.67698,-12.7899 -3.67698,-12.7899 z"/>
    <path d="m 576.30699,969.1149 35.40179,0.0954 -8.25391,26.57066 c 0,0 2.3271,-4.12241 5.45412,-5.48594 a 18.180399,18.180399 0 0 1 6.81765,-1.36353 h 38.29701 c 0,0 12.12178,-0.63631 20.51658,5.48594 5.39504,3.93151 2.72706,12.33997 2.72706,12.33997 l -16.41235,54.8412 h -34.19279 c 0.0273,0 12.32177,-42.5149 12.32177,-42.5149 0,0 1.64078,-3.8179 0,-5.4541 -1.76804,-1.7635 -6.81765,-1.3635 -6.81765,-1.3635 h -30.09311 c 0,0 -2.78614,-0.1727 -4.09059,1.3635 -0.45451,0.5545 -1.36353,4.0906 -1.36353,4.0906 l -12.30813,43.8693 h -35.5654 z"/>
  </g>
  <g fill="#de0a14">
    <path d="m 795.9853,1038.4686 -6.94037,23.5209 h -83.00261 c 0,0 -16.0942,0.4272 -22.53915,-4.1497 -6.20861,-4.4088 -2.77706,-13.8307 -2.77706,-13.8307 l 19.44394,-60.85893 c 0,0 3.33156,-8.34935 11.10822,-12.44903 5.97227,-3.14521 22.221,-2.76797 22.221,-2.76797 h 84.71157 l -6.94492,22.13009 -65.27217,-0.0727 c 0,0 -5.45412,-0.45451 -9.71743,1.45443 a 10.958235,10.958235 0 0 0 -5.55411,5.53139 l -9.72197,33.17922 c 0,0 -1.28626,4.7951 1.3908,6.9176 2.1862,1.7363 9.72197,1.3636 9.72197,1.3636 z"/>
    <path d="m 842.75365,988.54882 c -2.35359,-0.0225 -12.22119,0.14782 -19.47916,4.32761 -6.46314,3.73153 -9.99922,12.95797 -9.99922,12.95797 l -12.40404,41.7563 c 0,0 -2.66315,7.8812 4.04087,11.5172 5.895,3.2134 17.65758,2.8816 17.65758,2.8816 h 62.29536 a 45.737338,45.737338 0 0 0 19.44362,-5.5403 c 7.32215,-4.0906 11.108,-13.8306 11.108,-13.8306 l 9.72224,-34.5791 c 0,0 3.18607,-8.9812 -1.39994,-13.82174 -5.54048,-5.87681 -19.4303,-5.65918 -19.4303,-5.65918 h -61.03574 c 0,0 -0.18307,-0.007 -0.51927,-0.01 z m 40.72036,23.61768 c 0,0 4.44961,0.1358 4.16781,4.1492 -0.44542,6.3222 -5.78132,17.2397 -7.57663,19.7259 a 6.0495277,6.0495277 0 0 1 -4.91798,2.4039 h -31.94264 c 0,0 -3.2588,0.1182 -4.16782,-1.3635 -1.15445,-1.9181 0,-5.5314 0,-5.5314 0,0 2.90882,-9.9854 6.21311,-15.6486 2.34527,-4.027 7.67608,-3.7178 7.67608,-3.7178 z"/>
    <path d="m 940.38312,988.5452 36.13808,0.12726 -1.3908,5.53139 c 0,0 1.50443,-3.07249 4.16786,-4.14968 a 34.315503,34.315503 0 0 1 4.48601,-1.50897 H 1026.39 c 0,0 13.3263,0.14544 19.544,5.65865 6.5813,5.81775 1.3908,19.36215 1.3908,19.36215 l -15.2534,48.4235 h -34.72001 l 12.49901,-41.4968 c 0,0 1.2181,-4.5133 0,-6.9176 -1.0181,-2.0135 -4.5087,-1.9862 -4.5087,-1.9862 h -31.90662 c 0,0 -2.64979,-0.1637 -3.85879,0.6045 -1.04992,0.6681 -2.06802,2.2725 -2.06802,2.2725 0,0 -9.17201,31.1976 -14.54432,47.5145 h -34.67911 z"/>
  </g>
</svg>
